<?xml version="1.0" standalone="no"?>
<!DOCTYPE svg PUBLIC "-//W3C//DTD SVG 20010904//EN"
 "http://www.w3.org/TR/2001/REC-SVG-20010904/DTD/svg10.dtd">
<svg version="1.0" xmlns="http://www.w3.org/2000/svg"
 width="700.000000pt" height="466.000000pt" viewBox="0 0 700.000000 466.000000"
 preserveAspectRatio="xMidYMid meet">

<g transform="translate(0.000000,466.000000) scale(0.100000,-0.100000)"
fill="#000000" stroke="none">
<path d="M3250 4386 c0 -14 4 -27 8 -30 5 -3 6 8 4 25 -5 35 -12 38 -12 5z"/>
<path d="M3843 4368 c1 -26 5 -42 8 -35 4 7 4 28 -1 47 -7 33 -8 33 -7 -12z"/>
<path d="M4440 4381 c0 -11 4 -22 9 -25 4 -3 6 6 3 19 -5 30 -12 33 -12 6z"/>
<path d="M4224 4355 c-3 -8 -4 -20 -2 -27 3 -7 7 -1 10 15 6 29 1 36 -8 12z"/>
<path d="M3033 4320 c0 -25 2 -35 4 -22 2 12 2 32 0 45 -2 12 -4 2 -4 -23z"/>
<path d="M3620 4313 c-3 -29 -1 -48 3 -44 5 5 7 28 5 52 l-3 44 -5 -52z"/>
<path d="M2968 4330 c-4 -14 -8 -36 -8 -50 1 -22 2 -23 11 -7 6 9 9 32 7 50
-3 31 -3 31 -10 7z"/>
<path d="M3557 4330 c-4 -14 -6 -38 -6 -55 l1 -30 9 34 c6 18 9 43 7 55 -3 20
-4 19 -11 -4z"/>
<path d="M4157 4316 c-5 -21 -6 -40 -3 -43 9 -10 18 24 14 54 -3 26 -4 25 -11
-11z"/>
<path d="M4222 4290 c0 -14 2 -19 5 -12 2 6 2 18 0 25 -3 6 -5 1 -5 -13z"/>
<path d="M3050 4201 c-14 -26 -13 -38 2 -23 11 11 20 42 12 42 -2 0 -8 -9 -14
-19z"/>
<path d="M3109 4203 c-13 -16 -12 -17 4 -4 9 7 17 15 17 17 0 8 -8 3 -21 -13z"/>
<path d="M3641 4202 c-7 -13 -11 -26 -8 -28 8 -8 29 25 25 38 -3 8 -9 4 -17
-10z"/>
<path d="M2871 4175 c-17 -20 -31 -40 -31 -46 0 -6 16 8 35 31 19 23 35 44 35
46 0 10 -10 2 -39 -31z"/>
<path d="M3474 4187 c-12 -12 -27 -33 -34 -47 -9 -17 -1 -13 23 15 20 22 36
43 37 48 0 10 -2 9 -26 -16z"/>
<path d="M4241 4196 c-16 -19 -11 -29 8 -17 7 5 12 14 9 21 -3 9 -8 7 -17 -4z"/>
<path d="M4074 4182 c-12 -10 -27 -29 -34 -42 -7 -14 -8 -20 -4 -15 5 6 22 25
38 43 33 35 32 41 0 14z"/>
<path d="M3736 4155 c-13 -20 -14 -25 -2 -25 7 0 16 11 18 25 3 14 4 25 3 25
-2 0 -10 -11 -19 -25z"/>
<path d="M3150 4156 c0 -8 -6 -17 -12 -19 -8 -3 -6 -6 5 -6 11 -1 17 6 17 19
0 11 -2 20 -5 20 -3 0 -5 -6 -5 -14z"/>
<path d="M4339 4158 c-5 -18 -6 -38 -1 -34 7 8 12 36 6 36 -2 0 -4 -1 -5 -2z"/>
<path d="M2683 4060 c0 -25 2 -35 4 -22 2 12 2 32 0 45 -2 12 -4 2 -4 -23z"/>
<path d="M2899 4083 c-13 -16 -12 -17 4 -4 9 7 17 15 17 17 0 8 -8 3 -21 -13z"/>
<path d="M3489 4083 c-13 -16 -12 -17 4 -4 9 7 17 15 17 17 0 8 -8 3 -21 -13z"/>
<path d="M3871 4060 c0 -32 2 -40 9 -29 5 9 6 28 0 45 -8 27 -8 26 -9 -16z"/>
<path d="M2711 4061 c-1 -24 2 -32 9 -25 7 7 7 19 1 35 -9 23 -10 22 -10 -10z"/>
<path d="M3271 4080 c0 -8 4 -22 9 -30 12 -18 12 -2 0 25 -6 13 -9 15 -9 5z"/>
<path d="M3300 4080 c0 -8 5 -22 10 -30 9 -13 10 -13 10 0 0 8 -5 22 -10 30
-9 13 -10 13 -10 0z"/>
<path d="M3900 4061 c0 -12 5 -21 10 -21 6 0 10 6 10 14 0 8 -4 18 -10 21 -5
3 -10 -3 -10 -14z"/>
<path d="M3100 4066 c0 -2 8 -10 18 -17 15 -13 16 -12 3 4 -13 16 -21 21 -21
13z"/>
<path d="M4290 4066 c0 -2 8 -10 18 -17 15 -13 16 -12 3 4 -13 16 -21 21 -21
13z"/>
<path d="M3621 4044 c0 -11 3 -14 6 -6 3 7 2 16 -1 19 -3 4 -6 -2 -5 -13z"/>
<path d="M3033 4020 c0 -19 -2 -41 -7 -48 -4 -6 -4 -16 -1 -22 3 -5 2 -10 -3
-10 -5 0 -9 -7 -9 -16 0 -15 2 -15 13 1 7 9 10 24 7 33 -4 10 -2 13 5 8 14 -8
14 13 2 59 l-9 30 2 -35z"/>
<path d="M3384 4001 c3 -24 8 -46 11 -49 2 -3 0 -11 -6 -18 -7 -8 -7 -14 1
-19 5 -3 10 -1 10 5 0 7 6 10 13 7 8 -3 13 5 13 24 1 16 -3 26 -8 23 -5 -3 -7
-13 -4 -21 3 -8 1 -11 -4 -8 -6 3 -10 21 -10 38 0 18 -5 39 -10 47 -8 11 -9 3
-6 -29z"/>
<path d="M3985 4004 c5 -56 9 -68 20 -76 18 -14 25 -8 23 16 -1 14 -6 22 -10
20 -5 -3 -5 -10 -2 -16 4 -7 2 -8 -4 -4 -7 4 -12 22 -12 39 0 18 -5 39 -10 47
-7 11 -8 3 -5 -26z"/>
<path d="M2795 4010 c-3 -5 -2 -26 4 -45 6 -23 6 -35 0 -35 -6 0 -7 -5 -3 -11
4 -8 9 -7 15 2 4 7 6 16 3 20 -2 4 1 11 7 15 7 4 9 3 6 -2 -3 -6 -2 -16 4 -24
6 -11 9 -6 9 17 0 25 -4 31 -15 27 -14 -6 -19 5 -16 34 2 14 -5 16 -14 2z"/>
<path d="M2890 3989 c0 -28 -5 -38 -20 -42 -20 -5 -28 -27 -10 -27 6 0 10 -5
10 -10 0 -6 -6 -10 -12 -9 -7 1 -37 1 -65 0 -49 -1 -53 -3 -53 -25 0 -19 -7
-26 -30 -31 -70 -15 -92 -100 -40 -158 17 -19 30 -41 30 -48 0 -7 9 -31 19
-53 11 -24 21 -69 23 -106 l3 -65 -55 3 c-30 1 -65 4 -77 7 -21 5 -21 4 -17
-133 2 -75 9 -306 15 -512 6 -206 16 -460 22 -563 l12 -188 -25 5 c-106 24
-246 39 -362 40 -75 1 -139 -1 -141 -4 -3 -3 12 -55 32 -115 21 -61 49 -149
62 -197 23 -87 24 -88 55 -88 17 0 46 -3 63 -6 l31 -7 -49 -23 c-163 -75 -186
-147 -100 -309 35 -67 59 -132 80 -213 51 -199 85 -223 324 -223 l106 0 24
-55 c21 -48 27 -54 53 -54 27 0 30 -3 36 -46 3 -26 6 -75 6 -109 0 -56 -2 -63
-21 -68 -16 -4 -20 -10 -14 -24 4 -10 11 -39 16 -65 8 -49 61 -118 89 -118 7
0 29 16 48 36 24 25 36 47 39 77 8 62 20 80 43 67 26 -14 116 -12 245 5 156
21 145 23 145 -35 0 -44 -2 -50 -21 -50 -18 0 -20 -4 -14 -22 4 -13 9 -36 11
-53 10 -63 15 -74 34 -80 11 -3 20 -13 20 -20 0 -8 9 -19 19 -25 20 -10 51 -4
51 11 0 4 12 19 26 32 19 17 28 38 31 71 3 26 10 49 14 52 17 10 9 34 -11 34
-17 0 -20 7 -20 50 0 58 -11 56 145 35 128 -17 219 -19 245 -5 24 13 36 -3 44
-61 4 -29 15 -54 29 -66 12 -11 27 -28 33 -38 7 -14 17 -16 37 -11 15 3 27 13
27 20 0 8 11 21 24 29 17 12 25 28 29 59 3 24 8 55 12 71 6 21 4 27 -9 27 -14
0 -16 16 -16 115 0 113 0 115 23 115 17 0 26 11 43 51 l21 52 144 1 c168 2
202 12 248 76 17 24 38 75 52 128 13 50 50 141 86 212 36 71 63 138 63 155 -1
74 -61 145 -161 188 l-34 15 38 2 c20 2 42 3 48 4 6 0 33 62 59 136 26 74 59
164 74 199 14 36 26 66 26 68 0 2 -75 3 -167 3 -158 0 -297 -17 -366 -45 -16
-7 -18 -4 -13 26 12 75 39 649 52 1124 l7 240 -83 -3 -83 -4 6 78 c4 43 14 88
22 100 8 13 15 31 15 41 0 10 14 31 30 46 28 27 35 46 31 92 -2 23 -55 75 -76
75 -9 0 -15 10 -15 25 0 28 -1 28 -116 25 -57 -1 -72 2 -77 14 -4 9 -12 16
-19 16 -9 0 -8 -3 2 -10 8 -5 13 -10 10 -11 -3 0 -14 -2 -25 -4 -10 -2 -25 1
-32 7 -9 7 -13 7 -13 -1 0 -6 -13 -11 -30 -11 -25 0 -30 -4 -30 -25 0 -15 -6
-25 -14 -25 -8 0 -28 -13 -45 -29 -43 -40 -43 -90 -1 -133 17 -16 30 -39 30
-50 0 -12 7 -29 16 -39 13 -14 39 -148 30 -156 -2 -3 -290 37 -293 41 -8 8 19
113 32 122 8 6 15 21 15 32 0 12 11 32 25 46 53 53 38 133 -29 157 -27 10 -36
19 -36 36 0 22 -3 23 -94 23 -85 0 -94 2 -99 20 -3 11 -1 20 4 20 5 0 9 -4 9
-10 0 -5 4 -10 10 -10 5 0 7 7 4 15 -8 19 -40 20 -47 1 -3 -7 0 -19 6 -26 9
-9 9 -11 -3 -10 -8 1 -36 2 -62 1 -43 -1 -48 -3 -48 -24 0 -17 -9 -26 -36 -36
-67 -24 -82 -104 -29 -157 14 -14 25 -34 25 -46 0 -12 7 -29 15 -38 16 -17 38
-120 26 -120 -3 0 -64 -9 -136 -20 -71 -11 -136 -20 -142 -20 -21 0 -16 100 7
145 11 22 20 46 20 55 0 8 14 28 30 43 42 40 42 96 1 138 -16 16 -37 29 -45
29 -10 0 -16 9 -16 25 0 25 -1 25 -88 25 -76 0 -89 2 -100 20 -10 17 -10 20 3
20 8 0 15 -4 15 -10 0 -5 5 -10 12 -10 9 0 9 3 1 11 -8 8 -8 20 -2 36 6 16 6
31 -1 41 -7 13 -9 9 -10 -19z m110 -126 c0 -16 -11 -18 -120 -15 -96 3 -120 6
-120 18 0 11 22 14 120 14 108 0 120 -2 120 -17z m38 0 c-4 -22 -22 -20 -26 1
-2 10 3 16 13 16 10 0 15 -7 13 -17z m549 2 c0 -12 -20 -15 -114 -15 -94 0
-113 3 -113 15 0 12 19 15 113 15 94 0 114 -3 114 -15z m53 -4 c0 -14 -5 -18
-20 -14 -11 3 -20 12 -20 19 0 8 9 14 20 14 13 0 20 -7 20 -19z m560 -1 c0
-19 -7 -20 -125 -20 -98 0 -125 3 -125 13 0 25 12 27 132 27 111 0 118 -1 118
-20z m40 0 c0 -11 -4 -20 -10 -20 -5 0 -10 9 -10 20 0 11 5 20 10 20 6 0 10
-9 10 -20z m-1136 -51 c33 -26 36 -79 6 -109 -19 -19 -33 -20 -215 -20 -187 0
-195 1 -215 22 -29 32 -27 81 6 107 25 20 40 21 209 21 169 0 184 -1 209 -21z
m612 -4 c26 -35 28 -65 7 -93 l-20 -27 -201 -3 -200 -2 -21 26 c-33 42 -23 95
22 114 12 5 107 8 210 7 176 -2 190 -3 203 -22z m595 -2 c29 -29 29 -77 0
-106 -21 -21 -29 -22 -215 -22 -177 0 -196 2 -215 19 -14 13 -21 31 -21 58 0
32 5 41 33 58 29 19 46 20 214 18 173 -3 184 -4 204 -25z m-1301 -153 c0 -19
-7 -20 -145 -20 -135 0 -145 1 -145 19 0 17 11 18 145 19 138 1 145 0 145 -18z
m58 -3 c2 -12 -3 -17 -17 -17 -15 0 -21 6 -21 21 0 25 33 22 38 -4z m530 1 c3
-16 -9 -18 -137 -18 -111 0 -141 3 -141 13 0 8 2 16 5 19 3 2 65 4 137 4 118
-1 133 -3 136 -18z m72 2 c0 -15 -7 -20 -25 -20 -17 0 -25 5 -25 18 0 12 8 18
25 20 19 1 25 -3 25 -18z m540 -10 c0 -19 -7 -20 -145 -20 -138 0 -145 1 -145
20 0 19 7 20 145 20 138 0 145 -1 145 -20z m60 -1 c0 -14 -5 -19 -17 -17 -26
5 -29 38 -4 38 15 0 21 -6 21 -21z m-1210 -27 c0 -5 -5 -13 -10 -18 -6 -6 -13
-44 -18 -85 -7 -71 -8 -74 -34 -77 -26 -3 -28 -1 -28 37 0 50 8 71 28 71 12 0
13 3 4 12 -22 22 -42 -10 -42 -67 0 -54 -9 -64 -57 -65 -21 0 -17 119 3 127 9
3 20 0 26 -8 8 -12 9 -12 6 0 -2 8 -12 19 -22 25 -30 19 -49 -19 -43 -86 l5
-58 -34 0 -34 0 0 55 c0 41 4 56 17 64 21 11 11 26 -12 18 -11 -5 -15 -22 -15
-71 0 -47 -4 -65 -15 -70 -17 -6 -21 8 -29 104 -4 35 -11 69 -16 74 -6 6 -10
12 -10 16 0 3 74 6 165 7 91 1 165 -1 165 -5z m595 -9 c-3 -8 -7 -26 -10 -39
-3 -13 -7 -35 -10 -49 -4 -19 -12 -25 -30 -25 -20 0 -25 5 -25 25 0 17 6 25
17 25 14 0 15 2 4 13 -10 10 -15 8 -27 -7 -8 -11 -14 -28 -14 -39 0 -15 -5
-18 -22 -13 -13 3 -28 6 -34 6 -7 0 -9 11 -6 26 3 19 9 24 24 21 12 -4 18 -1
15 6 -2 7 -15 12 -28 12 -20 0 -25 -6 -29 -35 -4 -31 -9 -35 -37 -38 -18 -2
-33 1 -33 7 0 22 13 41 28 41 12 0 13 3 4 12 -16 16 -42 -7 -42 -37 0 -25 -28
-43 -35 -22 -2 6 -6 31 -9 54 -3 23 -8 48 -11 55 -5 12 21 14 155 15 136 0
160 -2 155 -14z m595 -13 c-5 -10 -13 -53 -17 -95 l-6 -75 -33 0 -34 0 0 55
c0 39 4 56 16 63 10 6 13 12 6 16 -22 13 -42 -25 -42 -80 0 -56 -1 -58 -38
-48 -21 6 -23 11 -20 63 3 48 6 56 22 54 17 -1 17 0 3 15 -28 27 -47 -1 -47
-70 0 -58 0 -59 -27 -56 -20 2 -29 10 -35 33 -10 38 0 75 21 75 14 0 14 2 1
10 -24 15 -40 -9 -40 -61 0 -71 -16 -60 -23 16 -4 36 -11 74 -17 85 -11 20 -8
20 155 20 161 0 165 -1 155 -20z m-702 -117 c-27 -2 -69 -2 -95 0 -27 2 -5 3
47 3 52 0 74 -1 48 -3z m-170 -10 c-10 -2 -26 -2 -35 0 -10 3 -2 5 17 5 19 0
27 -2 18 -5z m280 0 c-10 -2 -26 -2 -35 0 -10 3 -2 5 17 5 19 0 27 -2 18 -5z
m-350 -10 c-10 -2 -26 -2 -35 0 -10 3 -2 5 17 5 19 0 27 -2 18 -5z m420 0
c-10 -2 -26 -2 -35 0 -10 3 -2 5 17 5 19 0 27 -2 18 -5z m-490 -10 c-10 -2
-26 -2 -35 0 -10 3 -2 5 17 5 19 0 27 -2 18 -5z m570 0 c-10 -2 -26 -2 -35 0
-10 3 -2 5 17 5 19 0 27 -2 18 -5z m-640 -10 c-10 -2 -26 -2 -35 0 -10 3 -2 5
17 5 19 0 27 -2 18 -5z m715 0 c-7 -2 -21 -2 -30 0 -10 3 -4 5 12 5 17 0 24
-2 18 -5z m-790 -10 c-7 -2 -21 -2 -30 0 -10 3 -4 5 12 5 17 0 24 -2 18 -5z
m865 0 c-10 -2 -26 -2 -35 0 -10 3 -2 5 17 5 19 0 27 -2 18 -5z m-940 -10
c-10 -2 -28 -2 -40 0 -13 2 -5 4 17 4 22 1 32 -1 23 -4z m1025 0 c-13 -2 -33
-2 -45 0 -13 2 -3 4 22 4 25 0 35 -2 23 -4z m-1406 -11 c-20 -8 -15 -14 308
-367 187 -204 276 -290 365 -357 55 -42 155 -88 205 -95 87 -11 185 51 185
118 0 26 -3 29 -32 29 -18 0 -56 11 -84 24 -87 40 -130 115 -180 313 -19 74
-41 147 -49 163 l-15 29 40 -14 c99 -35 204 -100 274 -169 93 -93 130 -161
130 -241 0 -33 -5 -73 -11 -90 -27 -72 -40 -125 -31 -125 14 0 97 49 140 82
l37 29 0 87 c-1 66 4 101 20 144 23 59 30 70 118 180 30 36 66 89 82 118 l28
51 22 -52 c26 -59 51 -167 51 -221 0 -85 -33 -184 -86 -255 -31 -41 -102 -83
-147 -87 -31 -3 -185 -91 -186 -107 -1 -9 73 -20 149 -23 107 -3 164 -52 211
-181 19 -51 23 -81 23 -205 1 -88 -3 -152 -10 -163 -10 -17 -12 -16 -29 10
-10 15 -66 75 -125 133 -131 129 -151 164 -158 282 l-5 87 -46 7 c-84 13 -174
-10 -318 -82 -144 -71 -213 -94 -283 -93 -77 1 -84 7 -81 72 4 97 -38 166
-163 264 -135 106 -195 177 -196 230 -1 42 -29 -20 -41 -90 -27 -162 24 -364
118 -468 58 -65 96 -79 210 -79 l98 -1 -46 -24 c-25 -13 -51 -31 -58 -39 -9
-10 -29 -16 -56 -16 -88 0 -173 -104 -189 -233 -14 -108 43 -282 114 -352 l37
-37 8 49 c7 50 42 130 120 271 48 90 56 137 33 202 -11 33 -10 35 34 74 25 23
59 49 76 59 l31 18 -19 -43 c-11 -24 -20 -61 -20 -84 0 -22 -7 -56 -17 -74
-54 -109 30 -278 190 -381 67 -43 188 -85 274 -96 l56 -6 -30 44 c-17 24 -54
103 -83 174 -98 245 -136 292 -246 315 -48 10 -54 14 -54 37 0 36 36 95 74
121 45 31 133 30 201 -2 69 -32 142 -99 421 -384 l241 -247 13 45 c7 25 14 50
16 57 2 8 32 -1 91 -26 48 -21 129 -52 180 -69 118 -40 164 -64 197 -102 77
-92 -33 -243 -194 -265 -44 -6 -53 -4 -80 19 -20 16 -98 47 -220 86 -125 41
-198 70 -215 86 -26 24 -27 24 -83 10 -146 -38 -256 -50 -472 -50 -179 0 -235
4 -335 22 -66 12 -134 26 -152 31 -25 7 -35 6 -47 -8 -27 -30 -116 -68 -252
-109 -147 -45 -194 -66 -194 -88 0 -19 -33 -15 -134 17 -106 32 -176 100 -176
171 0 69 65 115 240 168 112 34 202 65 230 80 16 8 16 16 4 97 -30 197 -58
717 -71 1296 l-6 307 24 -1 c19 0 21 -2 6 -7z m296 1 c-13 -2 -35 -2 -50 0
-16 2 -5 4 22 4 28 0 40 -2 28 -4z m1225 0 c-16 -2 -40 -2 -55 0 -16 2 -3 4
27 4 30 0 43 -2 28 -4z m230 -130 l-2 -138 -3 132 c-3 127 -4 132 -26 136 -18
4 -18 4 6 6 l27 1 -2 -137z m-1600 120 c-21 -2 -55 -2 -75 0 -21 2 -4 4 37 4
41 0 58 -2 38 -4z m1589 -505 c-2 -35 -3 -7 -3 62 0 69 1 97 3 63 2 -35 2 -91
0 -125z m-10 -265 c-2 -32 -3 -6 -3 57 0 63 1 89 3 58 2 -32 2 -84 0 -115z
m-10 -215 c-2 -24 -4 -7 -4 37 0 44 2 63 4 43 2 -21 2 -57 0 -80z m-10 -175
c-2 -21 -4 -6 -4 32 0 39 2 55 4 38 2 -18 2 -50 0 -70z m-10 -150 c-2 -16 -4
-5 -4 22 0 28 2 40 4 28 2 -13 2 -35 0 -50z m-10 -125 c-3 -7 -5 -2 -5 12 0
14 2 19 5 13 2 -7 2 -19 0 -25z m-300 -621 c-2 -23 -3 -1 -3 48 0 50 1 68 3
42 2 -26 2 -67 0 -90z m-861 93 c64 -11 131 -20 149 -20 18 0 47 -3 64 -6 26
-5 31 -11 31 -35 0 -32 7 -31 -225 -49 -77 -7 -152 -14 -167 -17 l-28 -5 0 65
c0 84 6 100 36 93 13 -4 76 -15 140 -26z m844 -45 l0 -75 -29 0 c-16 0 -73 4
-127 9 -55 6 -138 13 -186 16 l-88 7 6 26 c4 15 7 28 8 29 1 1 62 9 136 18 74
9 162 22 195 29 33 7 66 14 73 15 9 1 12 -20 12 -74z m-1030 -10 c0 -60 -3
-75 -15 -75 -12 0 -15 14 -15 68 0 38 3 72 7 75 17 18 23 1 23 -68z m1100 -10
c0 -58 -2 -65 -20 -65 -18 0 -20 7 -20 75 0 73 1 75 20 65 17 -9 20 -21 20
-75z m-1152 -66 c-10 -7 -14 6 -16 53 -2 42 1 64 10 69 10 7 14 -6 16 -53 2
-42 -1 -64 -10 -69z m1186 115 c12 -5 16 -21 16 -66 0 -51 -2 -59 -17 -56 -15
3 -19 16 -21 66 -2 34 -1 62 2 62 2 0 11 -3 20 -6z m-1214 -64 c0 -53 -2 -60
-20 -60 -18 0 -20 7 -20 54 0 44 4 55 18 59 9 3 18 5 20 6 1 0 2 -26 2 -59z
m540 20 c0 -16 -4 -30 -10 -30 -5 0 -10 14 -10 30 0 17 5 30 10 30 6 0 10 -13
10 -30z m50 0 c0 -23 -4 -30 -20 -30 -16 0 -20 7 -20 30 0 23 4 30 20 30 16 0
20 -7 20 -30z m50 0 c0 -23 -4 -30 -20 -30 -16 0 -20 7 -20 30 0 23 4 30 20
30 16 0 20 -7 20 -30z m30 0 c0 -16 -4 -30 -10 -30 -5 0 -10 14 -10 30 0 17 5
30 10 30 6 0 10 -13 10 -30z m600 -25 c0 -42 -3 -55 -15 -55 -12 0 -15 13 -15
55 0 42 3 55 15 55 12 0 15 -13 15 -55z m-1320 -5 c0 -27 -4 -50 -10 -50 -11
0 -14 83 -3 93 12 12 13 8 13 -43z m1416 29 c107 -29 214 -74 214 -90 0 -11
-100 -12 -217 -2 l-83 6 0 53 c0 30 2 54 5 54 3 0 39 -9 81 -21z m-1446 -38
l0 -49 -82 -7 c-46 -4 -110 -5 -143 -3 -58 3 -59 3 -35 18 22 12 231 87 253
89 4 1 7 -21 7 -48z m619 -123 l-1 -43 -14 33 c-13 30 -18 33 -52 30 -36 -3
-37 -4 -40 -45 l-3 -43 38 0 c22 0 44 5 51 12 9 9 12 7 12 -13 0 -23 -3 -24
-45 -21 l-45 4 0 -46 c0 -46 0 -46 35 -46 28 0 38 5 47 25 13 29 28 24 28 -10
0 -26 -1 -26 -112 -40 -31 -4 -48 -2 -48 4 0 6 5 11 10 11 7 0 10 37 8 103 -2
75 -6 101 -15 100 -7 -2 -13 1 -13 6 0 10 39 16 118 19 l42 2 -1 -42z m186 32
c5 -8 11 -7 21 1 12 10 14 3 14 -40 0 -32 -4 -50 -10 -46 -5 3 -10 17 -10 30
0 21 -32 55 -52 55 -5 0 -17 -9 -29 -21 -20 -20 -20 -22 -3 -40 9 -10 22 -19
29 -19 24 0 65 -49 65 -76 0 -57 -68 -94 -104 -58 -15 14 -16 14 -16 -3 -1
-17 -1 -17 -11 0 -6 9 -9 34 -7 55 l3 37 20 -40 c22 -44 61 -58 84 -31 23 28
9 59 -37 81 -65 31 -80 67 -42 105 21 21 74 27 85 10z m160 -7 c75 -36 55
-132 -32 -158 -14 -4 -23 -2 -23 4 0 6 8 11 17 11 31 0 53 31 53 76 0 33 -5
46 -19 54 -44 23 -48 15 -56 -92 -6 -88 -5 -103 9 -113 14 -10 10 -12 -24 -11
-39 1 -53 10 -28 18 17 6 24 193 8 213 -11 13 -7 15 23 15 20 0 52 -8 72 -17z
m-519 -7 c3 -8 4 -23 1 -33 -4 -16 -6 -15 -12 5 -4 12 -15 22 -26 22 -19 0
-19 7 -5 -149 3 -30 11 -58 18 -63 8 -5 1 -8 -19 -8 -17 0 -38 -3 -47 -6 -9
-3 -16 -1 -16 5 0 6 9 11 20 11 19 0 20 5 16 48 -3 26 -8 73 -11 104 -5 44
-10 56 -21 51 -8 -3 -14 -14 -14 -24 0 -10 -4 -19 -10 -19 -5 0 -10 13 -10 29
0 27 4 30 38 34 78 8 93 7 98 -7z m-884 -18 c23 -7 34 -14 27 -19 -9 -5 -3
-30 21 -91 18 -45 36 -86 40 -91 3 -4 7 33 9 82 2 84 1 89 -21 94 -39 11 -15
16 32 7 25 -5 87 -9 138 -10 78 0 95 -3 112 -20 27 -27 26 -75 -1 -94 l-21
-14 21 -11 c11 -7 24 -23 27 -36 3 -14 14 -30 23 -35 13 -9 12 -10 -9 -8 -18
2 -30 14 -43 41 -15 29 -25 37 -45 37 l-27 1 28 15 c22 12 27 21 27 52 0 45
-14 62 -52 62 -24 0 -28 -3 -23 -22 4 -19 25 -172 25 -183 0 -2 8 -6 18 -8 9
-3 1 -5 -19 -6 -32 -1 -36 1 -32 22 2 12 -2 60 -9 107 -12 75 -16 85 -36 88
-19 3 -22 -1 -22 -30 1 -62 20 -172 33 -180 7 -4 -4 -8 -25 -8 -35 0 -52 14
-27 22 8 3 7 32 -2 101 -12 91 -15 97 -36 97 -22 0 -23 -2 -23 -105 0 -79 -3
-105 -13 -105 -7 0 -35 48 -62 108 -27 59 -57 117 -68 130 -23 25 -19 26 35
10z m722 6 c-7 -3 -9 -37 -6 -103 4 -94 4 -99 -19 -115 -59 -41 -92 -8 -109
108 -10 73 -15 86 -31 86 -12 0 -19 -7 -19 -20 0 -11 -4 -20 -10 -20 -5 0 -10
9 -10 20 0 14 -5 18 -16 13 -15 -5 -16 -19 -11 -97 4 -65 10 -94 22 -102 13
-9 9 -12 -22 -17 -39 -7 -56 -1 -35 12 19 12 2 196 -18 196 -8 0 -16 -10 -18
-23 -4 -28 -22 -19 -22 12 0 22 6 24 88 35 118 15 147 15 134 -1 -10 -13 -1
-147 13 -180 4 -10 18 -18 30 -18 31 0 35 18 27 120 -5 59 -11 84 -20 83 -6
-2 -12 2 -12 7 0 6 17 10 38 9 20 0 32 -3 26 -5z m885 -4 c72 -10 101 -31 101
-72 0 -21 -8 -33 -30 -47 -27 -16 -29 -20 -14 -31 9 -8 14 -23 11 -38 -3 -18
1 -26 20 -33 13 -5 25 -9 27 -9 1 0 3 12 4 28 1 15 8 56 16 92 12 58 12 66 -2
78 -13 10 -9 12 26 12 23 0 42 -5 42 -11 0 -5 -4 -7 -10 -4 -10 6 -12 1 -35
-115 -11 -50 -12 -76 -5 -78 5 -2 10 -8 10 -14 0 -5 -9 -7 -19 -3 -10 3 -33 7
-51 10 -43 5 -60 22 -60 57 0 21 -6 31 -20 35 -11 3 -20 10 -20 15 0 5 9 7 19
3 39 -12 77 54 53 92 -4 6 -19 14 -33 18 -26 6 -27 5 -39 -60 -7 -37 -13 -87
-14 -111 -1 -41 -3 -44 -28 -44 -32 0 -45 16 -19 23 15 4 20 19 27 88 12 117
12 114 -16 114 -24 0 -26 -5 -43 -99 -15 -81 -16 -100 -5 -107 8 -6 -1 -9 -27
-9 -27 0 -36 3 -26 9 8 5 20 43 27 88 17 106 17 121 -3 126 -33 9 72 7 136 -3z
m636 -10 c5 -8 12 -7 23 2 14 11 15 10 8 -7 -5 -11 -11 -30 -13 -42 -7 -33
-23 -28 -23 6 0 29 -18 45 -37 33 -22 -15 -20 -41 8 -82 21 -31 27 -50 23 -69
-14 -56 -60 -83 -99 -57 -22 15 -25 15 -25 1 0 -8 -5 -15 -11 -15 -6 0 -8 6
-5 13 2 6 10 31 17 55 6 23 16 42 21 42 6 0 8 -10 5 -22 -12 -44 31 -76 61
-46 19 19 14 48 -13 80 -30 36 -32 71 -5 98 22 22 55 26 65 10z m-112 -18
c-13 -10 -28 -43 -39 -82 -22 -81 -39 -117 -63 -130 -58 -31 -77 9 -58 121 13
70 12 79 -2 82 -9 3 4 5 29 6 27 0 40 -3 32 -8 -16 -10 -42 -104 -42 -153 0
-42 17 -50 42 -20 19 22 51 152 43 174 -5 13 1 17 32 21 21 2 40 4 43 5 3 1
-5 -6 -17 -16z m-183 -27 c0 -14 -4 -25 -10 -25 -5 0 -10 7 -10 15 0 8 -6 15
-14 15 -9 0 -20 -26 -31 -77 -9 -43 -19 -86 -21 -95 -4 -12 0 -18 10 -18 9 0
16 -4 16 -8 0 -4 -16 -6 -35 -4 -36 4 -42 11 -26 28 4 5 14 38 20 74 7 36 14
73 17 83 3 9 0 17 -7 17 -6 0 -18 -8 -25 -17 -12 -17 -13 -17 -14 3 0 30 7 34
72 34 55 0 58 -1 58 -25z m-881 -257 c-1 -60 -2 -61 -10 -23 -11 55 -11 85 1
85 6 0 10 -27 9 -62z m41 2 c0 -47 -3 -60 -15 -60 -12 0 -15 13 -15 60 0 47 3
60 15 60 12 0 15 -13 15 -60z m40 0 c0 -47 -3 -60 -15 -60 -12 0 -15 13 -15
60 0 47 3 60 15 60 12 0 15 -13 15 -60z m30 0 c0 -33 -4 -60 -10 -60 -6 0 -10
27 -10 60 0 33 4 60 10 60 6 0 10 -27 10 -60z m-140 -10 l0 -60 -39 0 c-22 0
-75 -7 -118 -15 -43 -8 -79 -15 -80 -15 -2 0 -3 16 -3 36 0 36 -15 74 -33 86
-6 3 19 9 54 12 35 3 78 8 94 9 17 2 51 5 78 6 l47 1 0 -60z m390 53 c49 -5
60 -9 48 -17 -24 -18 -38 -52 -38 -91 0 -33 -2 -37 -22 -32 -35 9 -149 26
-188 29 -19 2 -34 6 -32 11 1 4 2 30 2 57 l0 50 84 0 c45 0 111 -3 146 -7z
m239 -45 c1 26 5 33 19 30 13 -2 18 -15 20 -51 l3 -48 -30 16 c-27 13 -31 21
-30 53 l2 37 7 -35 7 -35 2 33z m-1152 -50 c-4 -61 -1 -85 20 -148 14 -41 30
-81 36 -88 5 -7 7 -33 4 -58 -4 -42 -4 -44 12 -29 31 28 32 22 6 -92 -3 -13
-10 -23 -16 -23 -6 0 -19 10 -30 23 l-19 22 -20 -24 c-16 -19 -24 -21 -33 -12
-12 12 -37 121 -28 121 15 -1 29 -17 32 -39 6 -40 29 -38 29 3 0 19 5 38 11
42 17 10 32 -12 31 -46 -1 -29 11 -40 22 -21 7 11 -32 91 -45 91 -5 0 -16 -14
-23 -31 -21 -50 -27 -15 -30 186 -3 128 -2 151 3 80 l7 -100 2 102 c2 94 5
107 31 112 2 1 1 -32 -2 -71z m43 33 c0 -25 -5 -41 -15 -45 -12 -4 -15 4 -15
39 0 33 4 45 15 45 11 0 15 -11 15 -39z m30 10 c0 -17 -4 -33 -10 -36 -6 -4
-10 8 -10 29 0 20 5 36 10 36 6 0 10 -13 10 -29z m1150 -157 c0 -118 -4 -183
-10 -179 -12 7 -11 365 2 365 4 0 8 -84 8 -186z m30 11 c0 -94 -3 -179 -5
-190 -2 -11 -4 -24 -4 -30 -1 -6 -4 -6 -8 0 -13 16 -4 397 8 393 7 -2 10 -63
9 -173z m-986 139 c3 -9 6 -33 6 -54 l0 -39 -52 -6 c-76 -9 -181 -2 -185 12
-5 13 49 43 141 79 73 28 82 29 90 8z m792 -20 c147 -57 152 -85 16 -83 -104
1 -136 9 -140 33 -6 29 8 86 20 86 7 0 54 -16 104 -36z m-495 -95 c15 -8 20
-19 18 -44 -2 -18 3 -40 11 -50 12 -15 12 -21 -1 -43 -18 -33 -54 -40 -80 -16
-21 19 -25 44 -8 61 8 8 8 17 0 32 -16 29 2 61 37 70 2 1 12 -4 23 -10z m137
-11 c7 -7 12 -38 12 -70 0 -50 -3 -60 -24 -73 -19 -12 -30 -14 -44 -6 -32 17
-38 112 -9 149 12 15 49 16 65 0z m-236 -74 c3 -50 10 -79 19 -85 9 -6 1 -8
-26 -8 -22 1 -32 3 -22 6 11 3 16 10 13 20 -3 8 -6 37 -6 64 0 39 -3 49 -16
49 -14 0 -14 3 -4 15 27 32 37 16 42 -61z m352 60 c19 -19 20 -36 4 -52 -9 -9
-9 -15 0 -24 20 -20 14 -56 -13 -74 -23 -15 -27 -15 -50 0 -25 17 -34 59 -15
71 5 3 7 19 3 35 -10 52 36 80 71 44z m359 -201 c-21 -39 -33 -27 -32 32 l2
40 7 -35 7 -35 2 44 c0 25 7 60 14 79 l12 35 3 -63 c2 -47 -2 -73 -15 -97z
m-523 -57 c0 -36 -4 -68 -10 -71 -11 -7 -13 0 -12 70 0 49 0 50 -6 10 -5 -26
-12 -40 -22 -40 -8 0 -20 -11 -27 -25 -15 -30 -20 -18 -26 63 l-5 57 54 0 54
0 0 -64z m557 52 c14 -18 23 -59 12 -52 -5 3 -9 0 -9 -5 0 -6 7 -11 15 -11 9
0 15 9 15 23 0 26 17 47 39 47 12 0 12 -3 3 -12 -7 -7 -12 -27 -12 -46 0 -37
-15 -72 -31 -72 -6 0 -19 10 -28 21 l-17 22 -21 -27 c-19 -24 -23 -25 -37 -10
-9 8 -16 31 -16 50 0 20 -5 44 -10 55 -7 12 -7 19 -1 19 16 0 41 -30 41 -51 0
-10 7 -19 15 -19 8 0 15 5 15 11 0 5 -4 8 -9 4 -6 -3 -6 7 0 27 5 18 9 34 9
35 0 8 19 1 27 -9z m-593 -104 c3 -9 6 -29 6 -46 0 -36 24 -34 26 2 1 13 10
29 19 37 23 16 30 10 16 -15 -6 -12 -11 -36 -11 -55 0 -19 -7 -40 -15 -47 -13
-11 -18 -10 -31 8 -19 28 -41 28 -49 1 -14 -44 -48 2 -58 78 -5 39 -3 42 13
33 10 -6 20 -21 22 -35 3 -27 24 -35 21 -8 -2 22 15 63 26 63 5 0 12 -7 15
-16z"/>
<path d="M3091 3748 c0 -9 -7 -20 -13 -25 -7 -4 -78 -10 -158 -14 l-145 -5
151 -2 c160 -2 182 4 171 45 -4 16 -5 16 -6 1z"/>
<path d="M3685 3737 c-9 -21 -18 -22 -155 -27 l-145 -6 147 -2 c122 -2 149 1
162 14 18 17 20 30 8 38 -4 2 -12 -5 -17 -17z"/>
<path d="M4272 3730 c-11 -17 -23 -20 -100 -21 -48 -1 -118 -5 -157 -9 -53 -6
-30 -7 92 -6 165 1 189 6 181 40 -2 14 -5 14 -16 -4z"/>
<path d="M2873 615 c0 -38 2 -53 4 -32 2 20 2 52 0 70 -2 17 -4 1 -4 -38z"/>
<path d="M2912 610 c0 -19 2 -27 5 -17 2 9 2 25 0 35 -3 9 -5 1 -5 -18z"/>
<path d="M2942 580 c0 -19 2 -27 5 -17 2 9 2 25 0 35 -3 9 -5 1 -5 -18z"/>
<path d="M3417 753 c-12 -12 -7 -31 10 -37 19 -8 48 17 39 33 -8 12 -39 15
-49 4z"/>
<path d="M3417 674 c-14 -15 -7 -53 12 -59 31 -10 52 5 49 34 -2 19 -9 27 -28
29 -14 2 -29 0 -33 -4z"/>
<path d="M3546 748 c-10 -32 -14 -75 -9 -101 4 -22 11 -27 27 -25 19 3 21 9
21 68 0 54 -3 65 -18 68 -9 2 -19 -2 -21 -10z"/>
<path d="M3654 735 c-4 -9 -2 -21 4 -27 16 -16 47 -5 47 17 0 26 -42 34 -51
10z"/>
<path d="M3650 651 c-15 -29 -2 -51 30 -51 32 0 45 22 30 51 -14 25 -46 25
-60 0z"/>
<path d="M3492 515 c0 -16 2 -22 5 -12 2 9 2 23 0 30 -3 6 -5 -1 -5 -18z"/>
<path d="M3462 475 c0 -16 2 -22 5 -12 2 9 2 23 0 30 -3 6 -5 -1 -5 -18z"/>
<path d="M3484 3991 c1 -16 8 -34 17 -39 14 -9 15 -7 4 24 -15 45 -22 50 -21
15z"/>
<path d="M4082 4000 c1 -14 -2 -35 -6 -47 -8 -26 7 -38 31 -24 11 6 13 11 5
11 -7 0 -11 4 -7 9 3 6 -1 25 -9 43 -13 30 -14 30 -14 8z m15 -49 c0 -11 -5
-18 -9 -15 -4 3 -5 11 -1 19 7 21 12 19 10 -4z"/>
<path d="M3106 3989 c-14 -11 -24 -24 -21 -29 8 -13 38 -5 43 11 3 11 1 11 -7
-1 -9 -13 -11 -13 -11 3 0 9 7 17 15 17 8 0 15 5 15 10 0 14 -4 13 -34 -11z"/>
<path d="M3623 3990 c-21 -51 -24 -68 -12 -76 7 -4 9 -3 5 4 -3 6 -2 13 3 17
6 3 7 13 4 21 -5 14 -3 14 16 3 12 -8 17 -15 12 -17 -6 -2 -7 -10 -5 -17 5
-11 10 -10 26 5 12 11 24 17 29 15 7 -5 32 55 26 61 -8 9 -48 -30 -43 -42 8
-21 -11 -27 -23 -7 -6 10 -11 14 -12 8 -1 -5 -5 4 -9 20 l-7 30 -10 -25z m87
-15 c0 -8 -4 -15 -10 -15 -5 0 -7 7 -4 15 4 8 8 15 10 15 2 0 4 -7 4 -15z"/>
<path d="M4303 3995 c-23 -16 -25 -47 -2 -53 11 -3 11 -1 -1 7 -13 9 -13 11 3
11 9 0 17 4 17 10 0 5 -8 7 -17 4 -10 -2 -8 1 5 7 12 7 22 16 22 21 0 11 -2
10 -27 -7z"/>
<path d="M2985 3980 c-13 -38 -14 -50 -3 -50 6 0 8 6 5 14 -3 8 -1 16 5 18 6
2 8 13 6 23 -4 18 -5 17 -13 -5z"/>
<path d="M3310 3993 c0 -6 8 -17 18 -24 16 -13 16 -13 2 6 -8 11 -16 22 -17
24 -2 2 -3 0 -3 -6z"/>
<path d="M4177 3983 c-2 -10 -8 -26 -12 -35 -5 -12 -3 -18 7 -18 10 0 15 12
16 35 2 38 -3 45 -11 18z"/>
<path d="M4223 3993 c4 -3 3 -11 -2 -17 -12 -16 -20 -56 -12 -56 10 0 31 46
31 65 0 8 -5 15 -12 15 -6 0 -8 -3 -5 -7z"/>
<path d="M3570 3971 c-13 -25 -13 -41 0 -41 5 0 6 7 3 17 -4 10 -2 14 5 9 7
-4 10 1 9 14 -2 25 -4 25 -17 1z"/>
<path d="M3910 3986 c0 -2 8 -10 18 -17 15 -13 16 -12 3 4 -13 16 -21 21 -21
13z"/>
<path d="M2911 3954 c0 -11 3 -14 6 -6 3 7 2 16 -1 19 -3 4 -6 -2 -5 -13z"/>
<path d="M3054 3949 c-3 -6 -1 -16 5 -22 9 -9 10 -7 5 8 -7 18 -6 19 12 5 18
-14 18 -14 5 3 -16 20 -18 20 -27 6z"/>
<path d="M4244 3942 c-10 -15 -8 -18 7 -19 10 -1 21 2 24 8 3 5 -1 6 -10 3
-11 -5 -14 -2 -9 10 8 21 2 20 -12 -2z"/>
<path d="M3531 3934 c0 -11 3 -14 6 -6 3 7 2 16 -1 19 -3 4 -6 -2 -5 -13z"/>
<path d="M2747 3929 c7 -7 15 -10 18 -7 3 3 -2 9 -12 12 -14 6 -15 5 -6 -5z"/>
<path d="M3340 3930 c0 -5 5 -10 11 -10 5 0 7 5 4 10 -3 6 -8 10 -11 10 -2 0
-4 -4 -4 -10z"/>
<path d="M3945 3920 c3 -5 11 -10 16 -10 6 0 7 5 4 10 -3 6 -11 10 -16 10 -6
0 -7 -4 -4 -10z"/>
</g>
</svg>
